<svg id="Component_9_17" data-name="Component 9 – 17" xmlns="http://www.w3.org/2000/svg" width="20.816" height="20.811" viewBox="0 0 20.816 20.811">
  <path id="Path_10" data-name="Path 10" d="M10.335,36.895a5.336,5.336,0,1,0,5.336,5.336A5.327,5.327,0,0,0,10.335,36.895Zm0,8.8A3.469,3.469,0,1,1,13.8,42.231,3.475,3.475,0,0,1,10.335,45.7Zm6.8-9.023a1.245,1.245,0,1,1-1.245-1.245A1.242,1.242,0,0,1,17.134,36.677Zm3.534,1.263a6.159,6.159,0,0,0-1.681-4.361A6.2,6.2,0,0,0,14.626,31.9c-1.718-.1-6.868-.1-8.587,0a6.191,6.191,0,0,0-4.361,1.676A6.179,6.179,0,0,0,0,37.935c-.1,1.718-.1,6.868,0,8.587a6.159,6.159,0,0,0,1.681,4.361A6.207,6.207,0,0,0,6.04,52.563c1.718.1,6.868.1,8.587,0a6.159,6.159,0,0,0,4.361-1.681,6.2,6.2,0,0,0,1.681-4.361C20.766,44.8,20.766,39.658,20.668,37.94Zm-2.22,10.425a3.512,3.512,0,0,1-1.978,1.978c-1.37.543-4.621.418-6.135.418s-4.769.121-6.135-.418a3.512,3.512,0,0,1-1.978-1.978C1.679,47,1.8,43.745,1.8,42.231s-.121-4.769.418-6.135A3.512,3.512,0,0,1,4.2,34.118c1.37-.543,4.621-.418,6.135-.418s4.769-.121,6.135.418A3.512,3.512,0,0,1,18.448,36.1c.543,1.37.418,4.621.418,6.135S18.992,47,18.448,48.365Z" transform="translate(0.075 -31.825)" fill="#fff"/>
</svg>
